<svg width="32" height="32" viewBox="0 0 32 32" fill="none" xmlns="http://www.w3.org/2000/svg">
<path d="M29.7971 21.8261C29.0435 23.6135 27.9614 25.2077 26.5894 26.5894C25.2174 27.9614 23.6135 29.0435 21.8261 29.7971C20.2512 30.4638 18.5894 30.8502 16.8792 30.9469L24.2126 20.6667C24.3575 20.4734 24.3382 20.2029 24.1739 20.0193C24.0097 19.8454 23.7391 19.8068 23.5362 19.9324L15.9903 24.5507L8.44444 20.1836C8.23188 20.058 7.97101 20.1063 7.80676 20.2802C7.64251 20.4638 7.63285 20.7246 7.77778 20.9179L15.1015 30.9469C13.3913 30.8502 11.7391 30.4638 10.1643 29.7971C8.37681 29.0435 6.78261 27.9614 5.40097 26.5894C4.02899 25.2174 2.94686 23.6135 2.19324 21.8261C1.95169 21.256 1.74879 20.6667 1.57488 20.0676C1.58454 20.0676 1.5942 20.0676 1.5942 20.0676C1.60386 20.0676 1.61353 20.0676 1.61353 20.0676C1.62319 20.0676 1.63285 20.0676 1.64251 20.0676C1.65217 20.0676 1.66184 20.0676 1.6715 20.0676C1.68116 20.0676 1.69082 20.0676 1.69082 20.0676C1.70048 20.0676 1.71015 20.0676 1.71981 20.0676C1.72947 20.0676 1.73913 20.0676 1.74879 20.058C1.75845 20.058 1.75845 20.058 1.76812 20.0483C1.77778 20.0483 1.78744 20.0386 1.7971 20.0386H1.80676H1.81643L8.1256 17.3816L7.74879 17.971C7.74879 17.9807 7.73913 17.9807 7.73913 17.9903C7.73913 18 7.72947 18.0097 7.72947 18.0193C7.72947 18.029 7.71981 18.029 7.71981 18.0386C7.71981 18.0483 7.71014 18.058 7.71014 18.0676C7.71014 18.0773 7.70048 18.087 7.70048 18.087C7.70048 18.0966 7.69082 18.1063 7.69082 18.1159C7.69082 18.1256 7.69082 18.1256 7.68116 18.1353C7.68116 18.1449 7.68116 18.1546 7.6715 18.1643C7.6715 18.1739 7.6715 18.1739 7.6715 18.1836C7.6715 18.1932 7.6715 18.2029 7.6715 18.2126C7.6715 18.2222 7.6715 18.2222 7.6715 18.2319C7.6715 18.2415 7.6715 18.2512 7.6715 18.2609C7.6715 18.2705 7.6715 18.2705 7.6715 18.2802C7.6715 18.2899 7.6715 18.2995 7.6715 18.3092C7.6715 18.3188 7.6715 18.3188 7.6715 18.3285C7.6715 18.3382 7.6715 18.3478 7.68116 18.3575V18.3671V18.3768C7.68116 18.3865 7.69082 18.3961 7.69082 18.4058C7.69082 18.4155 7.70048 18.4251 7.70048 18.4348C7.70048 18.4348 7.70048 18.4444 7.71014 18.4444V18.4541C7.71014 18.4638 7.71981 18.4734 7.71981 18.4734C7.71981 18.4831 7.72947 18.4928 7.72947 18.4928C7.72947 18.5024 7.73913 18.5024 7.73913 18.5121C7.74879 18.5217 7.74879 18.5314 7.75845 18.5314C7.75845 18.5411 7.76812 18.5411 7.76812 18.5507C7.77778 18.5604 7.77778 18.57 7.78744 18.57C7.78744 18.5797 7.7971 18.5797 7.7971 18.5797C7.80676 18.5894 7.80676 18.599 7.81643 18.599C7.81643 18.599 7.82609 18.6087 7.83575 18.6087C7.84541 18.6184 7.85507 18.6184 7.85507 18.628C7.86473 18.628 7.86473 18.6377 7.8744 18.6377C7.88406 18.6473 7.89372 18.6473 7.89372 18.657C7.89372 18.657 7.90338 18.657 7.90338 18.6667L15.7101 23.2754C15.7101 23.2754 15.7101 23.2754 15.7198 23.2754C15.7391 23.285 15.7585 23.2947 15.7778 23.3043C15.7971 23.314 15.8164 23.3237 15.8357 23.3237H15.8454C15.8647 23.3237 15.8744 23.3333 15.8937 23.3333C15.9034 23.3333 15.9034 23.3333 15.913 23.3333C15.9324 23.3333 15.9517 23.3333 15.971 23.3333C15.9903 23.3333 16.0097 23.3333 16.029 23.3333C16.0386 23.3333 16.0386 23.3333 16.0483 23.3333C16.0676 23.3333 16.0773 23.3237 16.0966 23.3237H16.1063C16.1256 23.314 16.1449 23.314 16.1643 23.3043C16.1836 23.2947 16.2029 23.285 16.2222 23.2754C16.2222 23.2754 16.2222 23.2754 16.2319 23.2754L24.0386 18.6667L24.0483 18.657C24.058 18.657 24.058 18.6473 24.0676 18.6473C24.087 18.6377 24.0966 18.628 24.1063 18.6184L24.1159 18.6087C24.1353 18.599 24.1449 18.5797 24.1643 18.5604C24.1643 18.5604 24.1739 18.5507 24.1739 18.5411C24.1836 18.5314 24.1932 18.5121 24.2029 18.4928L24.2126 18.4831C24.2222 18.4638 24.2319 18.4444 24.2415 18.4251C24.2415 18.4251 24.2415 18.4251 24.2415 18.4155C24.2415 18.4155 24.2415 18.4058 24.2512 18.4058C24.2512 18.3961 24.2609 18.3865 24.2609 18.3768C24.2609 18.3672 24.2705 18.3575 24.2705 18.3478V18.3382V18.3285C24.2705 18.3188 24.2705 18.3092 24.2802 18.2995C24.2802 18.2899 24.2802 18.2899 24.2802 18.2802C24.2802 18.2705 24.2802 18.2609 24.2802 18.2512C24.2802 18.2415 24.2802 18.2415 24.2802 18.2319C24.2802 18.2222 24.2802 18.2126 24.2802 18.2029C24.2802 18.1932 24.2802 18.1932 24.2802 18.1836C24.2802 18.1739 24.2802 18.1642 24.2802 18.1546C24.2802 18.1449 24.2802 18.1449 24.2802 18.1353C24.2802 18.1256 24.2802 18.1159 24.2705 18.1063C24.2705 18.0966 24.2705 18.0966 24.2609 18.087C24.2609 18.0773 24.2512 18.0676 24.2512 18.058C24.2512 18.0483 24.2415 18.0386 24.2415 18.0386C24.2415 18.029 24.2319 18.0193 24.2319 18.0097C24.2319 18 24.2222 18 24.2222 17.9903C24.2222 17.9807 24.2126 17.971 24.2126 17.9614C24.2126 17.9517 24.2029 17.9517 24.2029 17.942L23.8261 17.3527L30.1449 20.0193H30.1546C30.1643 20.0193 30.1643 20.0193 30.1739 20.029C30.1836 20.029 30.2029 20.0386 30.2126 20.0386C30.2222 20.0386 30.2222 20.0386 30.2319 20.0386C30.2512 20.0386 30.2609 20.0483 30.2802 20.0483H30.2899C30.3092 20.0483 30.3285 20.0483 30.3478 20.0483H30.3575C30.3671 20.0483 30.3768 20.0483 30.3865 20.0483C30.2415 20.6667 30.0386 21.2464 29.7971 21.8261ZM15.4879 29.7488L10.0386 22.2802L15.4879 25.4396V29.7488ZM16.5121 25.43L21.942 22.1063L16.5121 29.7101V25.43ZM22.4251 11.0338L23.3913 9.50725L24.3768 11.0531L24.2415 11.2464L23.6812 10.5797C23.6135 10.4928 23.5072 10.4444 23.3913 10.4444C23.3913 10.4444 23.3913 10.4444 23.3816 10.4444C23.2657 10.4444 23.1594 10.5024 23.0918 10.5894L22.57 11.2464L22.4251 11.0338ZM23.1981 16.1546L23.1111 16.1932L21.1304 13.0725L21.9903 11.7198L22.2609 12.0966C22.3285 12.1932 22.4348 12.2512 22.5604 12.2512C22.6763 12.2512 22.7923 12.2029 22.8599 12.1063L23.401 11.4203L23.9807 12.1159C24.0483 12.2029 24.1546 12.2512 24.2705 12.2512C24.2802 12.2512 24.2802 12.2512 24.2899 12.2512C24.4058 12.2415 24.5121 12.1836 24.5797 12.087L24.8116 11.7488L29.0725 18.4638L23.5942 16.1546C23.4686 16.0966 23.3237 16.0966 23.1981 16.1546ZM16.5121 20.0676V18.9758V18.4734V15.7198L17.8841 16.2995L18.8406 16.7053L20.3768 17.3527L21.6908 17.9034L22.6763 18.3188L16.5121 21.9614V20.0676ZM14.8502 8.67633L16 6.86957L17.1594 8.70531L16.9469 9.01449L16.2802 8.22222C16.2029 8.13527 16.0966 8.08696 15.9903 8.08696C15.8744 8.08696 15.7681 8.14493 15.7005 8.23188L15.0821 9.01449L14.8502 8.67633ZM14.4155 9.36232L14.7633 9.84541C14.8309 9.94203 14.9372 10 15.0628 10C15.1787 10 15.2947 9.95169 15.3623 9.85507L16 9.04348L16.686 9.85507C16.7536 9.94203 16.8599 9.99034 16.9758 9.99034C16.9855 9.99034 16.9855 9.99034 16.9952 9.99034C17.1111 9.98068 17.2174 9.9227 17.285 9.82609L17.5942 9.38164L19.9227 13.0531L20.5217 14.0097L22.1449 16.5797L22.4928 17.1208L21.6812 16.7729L19.3816 15.8068L18.4251 15.401L16.1836 14.4541C16.1739 14.4541 16.1643 14.4444 16.1546 14.4444C16.1449 14.4444 16.1256 14.4348 16.1159 14.4348C16.087 14.4251 16.0676 14.4251 16.0386 14.4251C16.029 14.4251 16.0193 14.4251 16.0097 14.4251C16 14.4251 15.9903 14.4251 15.9807 14.4251C15.971 14.4251 15.9614 14.4251 15.9517 14.4251C15.942 14.4251 15.9324 14.4251 15.9227 14.4251C15.8937 14.4251 15.8744 14.4348 15.8454 14.4348C15.8357 14.4348 15.8164 14.4444 15.8068 14.4444C15.7971 14.4444 15.7874 14.4541 15.7778 14.4541L13.5362 15.401L12.5797 15.8068L10.2802 16.7729L9.4686 17.1208L9.81643 16.5797L11.4396 14.0097L12.0386 13.0531L14.4155 9.36232ZM7.63285 11.0338L8.59903 9.50725L9.58454 11.0531L9.44928 11.2464L8.88889 10.5797C8.82126 10.4928 8.71498 10.4444 8.59903 10.4444C8.59903 10.4444 8.59903 10.4444 8.58937 10.4444C8.47343 10.4444 8.36715 10.5024 8.29952 10.5894L7.77778 11.2464L7.63285 11.0338ZM8.80193 16.1546C8.67633 16.0966 8.5314 16.0966 8.4058 16.1546L2.92754 18.4638L7.19807 11.7198L7.4686 12.0966C7.53623 12.1932 7.64251 12.2512 7.76812 12.2512C7.88406 12.2512 8 12.2029 8.06763 12.1063L8.6087 11.4203L9.18841 12.1159C9.25604 12.2029 9.36232 12.2512 9.47826 12.2512C9.48792 12.2512 9.48792 12.2512 9.49758 12.2512C9.61353 12.2415 9.71981 12.1836 9.78744 12.087L10.0193 11.7488L10.8599 13.0725L8.87923 16.1932L8.80193 16.1546ZM9.32367 18.3092L10.3092 17.8937L11.6232 17.343L13.1594 16.6957L14.1159 16.2899L15.4879 15.7101V18.4638V18.9662V20.058V21.942L9.32367 18.3092ZM2.2029 10.1643C2.95652 8.37681 4.03865 6.78261 5.41063 5.40097C6.78261 4.02899 8.38647 2.94686 10.1739 2.19324C12.0193 1.41063 13.9807 1.01449 16 1.01449C18.0193 1.01449 19.9807 1.41063 21.8261 2.19324C23.6135 2.94686 25.2077 4.02899 26.5894 5.40097C27.9614 6.77295 29.0435 8.37681 29.7971 10.1643C30.5797 12.0097 30.9758 13.971 30.9758 15.9903C30.9758 17.0338 30.8696 18.058 30.6667 19.0531L23.8261 8.28019C23.7295 8.13527 23.5749 8.03865 23.3913 8.03865C23.2174 8.03865 23.0531 8.1256 22.9565 8.28019L20.5217 12.1159L16.4155 5.64251C16.3188 5.49758 16.1546 5.40097 15.9807 5.40097C15.8068 5.40097 15.6425 5.48792 15.5459 5.64251L11.4396 12.1159L9.00483 8.28019C8.90821 8.13527 8.75362 8.03865 8.57005 8.03865C8.39614 8.03865 8.23188 8.1256 8.13527 8.28019L1.30435 19.0628C1.09179 18.058 0.995169 17.0338 0.995169 16C1.02415 13.971 1.42029 12.0097 2.2029 10.1643ZM16 0C7.16908 0 0 7.15942 0 16C0 24.8309 7.15942 32 16 32C24.8309 32 32 24.8406 32 16C31.9903 7.15942 24.8309 0 16 0Z" fill="#FF48E2"/>
<path d="M29.7971 21.8261C29.0435 23.6135 27.9614 25.2077 26.5894 26.5894C25.2174 27.9614 23.6135 29.0435 21.8261 29.7971C20.2512 30.4638 18.5894 30.8502 16.8792 30.9469L24.2126 20.6667C24.3575 20.4734 24.3382 20.2029 24.1739 20.0193C24.0097 19.8454 23.7391 19.8068 23.5362 19.9324L15.9903 24.5507L8.44444 20.1836C8.23188 20.058 7.97101 20.1063 7.80676 20.2802C7.64251 20.4638 7.63285 20.7246 7.77778 20.9179L15.1015 30.9469C13.3913 30.8502 11.7391 30.4638 10.1643 29.7971C8.37681 29.0435 6.78261 27.9614 5.40097 26.5894C4.02899 25.2174 2.94686 23.6135 2.19324 21.8261C1.95169 21.256 1.74879 20.6667 1.57488 20.0676C1.58454 20.0676 1.5942 20.0676 1.5942 20.0676C1.60386 20.0676 1.61353 20.0676 1.61353 20.0676C1.62319 20.0676 1.63285 20.0676 1.64251 20.0676C1.65217 20.0676 1.66184 20.0676 1.6715 20.0676C1.68116 20.0676 1.69082 20.0676 1.69082 20.0676C1.70048 20.0676 1.71015 20.0676 1.71981 20.0676C1.72947 20.0676 1.73913 20.0676 1.74879 20.058C1.75845 20.058 1.75845 20.058 1.76812 20.0483C1.77778 20.0483 1.78744 20.0386 1.7971 20.0386H1.80676H1.81643L8.1256 17.3816L7.74879 17.971C7.74879 17.9807 7.73913 17.9807 7.73913 17.9903C7.73913 18 7.72947 18.0097 7.72947 18.0193C7.72947 18.029 7.71981 18.029 7.71981 18.0386C7.71981 18.0483 7.71014 18.058 7.71014 18.0676C7.71014 18.0773 7.70048 18.087 7.70048 18.087C7.70048 18.0966 7.69082 18.1063 7.69082 18.1159C7.69082 18.1256 7.69082 18.1256 7.68116 18.1353C7.68116 18.1449 7.68116 18.1546 7.6715 18.1643C7.6715 18.1739 7.6715 18.1739 7.6715 18.1836C7.6715 18.1932 7.6715 18.2029 7.6715 18.2126C7.6715 18.2222 7.6715 18.2222 7.6715 18.2319C7.6715 18.2415 7.6715 18.2512 7.6715 18.2609C7.6715 18.2705 7.6715 18.2705 7.6715 18.2802C7.6715 18.2899 7.6715 18.2995 7.6715 18.3092C7.6715 18.3188 7.6715 18.3188 7.6715 18.3285C7.6715 18.3382 7.6715 18.3478 7.68116 18.3575V18.3671V18.3768C7.68116 18.3865 7.69082 18.3961 7.69082 18.4058C7.69082 18.4155 7.70048 18.4251 7.70048 18.4348C7.70048 18.4348 7.70048 18.4444 7.71014 18.4444V18.4541C7.71014 18.4638 7.71981 18.4734 7.71981 18.4734C7.71981 18.4831 7.72947 18.4928 7.72947 18.4928C7.72947 18.5024 7.73913 18.5024 7.73913 18.5121C7.74879 18.5217 7.74879 18.5314 7.75845 18.5314C7.75845 18.5411 7.76812 18.5411 7.76812 18.5507C7.77778 18.5604 7.77778 18.57 7.78744 18.57C7.78744 18.5797 7.7971 18.5797 7.7971 18.5797C7.80676 18.5894 7.80676 18.599 7.81643 18.599C7.81643 18.599 7.82609 18.6087 7.83575 18.6087C7.84541 18.6184 7.85507 18.6184 7.85507 18.628C7.86473 18.628 7.86473 18.6377 7.8744 18.6377C7.88406 18.6473 7.89372 18.6473 7.89372 18.657C7.89372 18.657 7.90338 18.657 7.90338 18.6667L15.7101 23.2754C15.7101 23.2754 15.7101 23.2754 15.7198 23.2754C15.7391 23.285 15.7585 23.2947 15.7778 23.3043C15.7971 23.314 15.8164 23.3237 15.8357 23.3237H15.8454C15.8647 23.3237 15.8744 23.3333 15.8937 23.3333C15.9034 23.3333 15.9034 23.3333 15.913 23.3333C15.9324 23.3333 15.9517 23.3333 15.971 23.3333C15.9903 23.3333 16.0097 23.3333 16.029 23.3333C16.0386 23.3333 16.0386 23.3333 16.0483 23.3333C16.0676 23.3333 16.0773 23.3237 16.0966 23.3237H16.1063C16.1256 23.314 16.1449 23.314 16.1643 23.3043C16.1836 23.2947 16.2029 23.285 16.2222 23.2754C16.2222 23.2754 16.2222 23.2754 16.2319 23.2754L24.0386 18.6667L24.0483 18.657C24.058 18.657 24.058 18.6473 24.0676 18.6473C24.087 18.6377 24.0966 18.628 24.1063 18.6184L24.1159 18.6087C24.1353 18.599 24.1449 18.5797 24.1643 18.5604C24.1643 18.5604 24.1739 18.5507 24.1739 18.5411C24.1836 18.5314 24.1932 18.5121 24.2029 18.4928L24.2126 18.4831C24.2222 18.4638 24.2319 18.4444 24.2415 18.4251C24.2415 18.4251 24.2415 18.4251 24.2415 18.4155C24.2415 18.4155 24.2415 18.4058 24.2512 18.4058C24.2512 18.3961 24.2609 18.3865 24.2609 18.3768C24.2609 18.3672 24.2705 18.3575 24.2705 18.3478V18.3382V18.3285C24.2705 18.3188 24.2705 18.3092 24.2802 18.2995C24.2802 18.2899 24.2802 18.2899 24.2802 18.2802C24.2802 18.2705 24.2802 18.2609 24.2802 18.2512C24.2802 18.2415 24.2802 18.2415 24.2802 18.2319C24.2802 18.2222 24.2802 18.2126 24.2802 18.2029C24.2802 18.1932 24.2802 18.1932 24.2802 18.1836C24.2802 18.1739 24.2802 18.1642 24.2802 18.1546C24.2802 18.1449 24.2802 18.1449 24.2802 18.1353C24.2802 18.1256 24.2802 18.1159 24.2705 18.1063C24.2705 18.0966 24.2705 18.0966 24.2609 18.087C24.2609 18.0773 24.2512 18.0676 24.2512 18.058C24.2512 18.0483 24.2415 18.0386 24.2415 18.0386C24.2415 18.029 24.2319 18.0193 24.2319 18.0097C24.2319 18 24.2222 18 24.2222 17.9903C24.2222 17.9807 24.2126 17.971 24.2126 17.9614C24.2126 17.9517 24.2029 17.9517 24.2029 17.942L23.8261 17.3527L30.1449 20.0193H30.1546C30.1643 20.0193 30.1643 20.0193 30.1739 20.029C30.1836 20.029 30.2029 20.0386 30.2126 20.0386C30.2222 20.0386 30.2222 20.0386 30.2319 20.0386C30.2512 20.0386 30.2609 20.0483 30.2802 20.0483H30.2899C30.3092 20.0483 30.3285 20.0483 30.3478 20.0483H30.3575C30.3671 20.0483 30.3768 20.0483 30.3865 20.0483C30.2415 20.6667 30.0386 21.2464 29.7971 21.8261ZM15.4879 29.7488L10.0386 22.2802L15.4879 25.4396V29.7488ZM16.5121 25.43L21.942 22.1063L16.5121 29.7101V25.43ZM22.4251 11.0338L23.3913 9.50725L24.3768 11.0531L24.2415 11.2464L23.6812 10.5797C23.6135 10.4928 23.5072 10.4444 23.3913 10.4444C23.3913 10.4444 23.3913 10.4444 23.3816 10.4444C23.2657 10.4444 23.1594 10.5024 23.0918 10.5894L22.57 11.2464L22.4251 11.0338ZM23.1981 16.1546L23.1111 16.1932L21.1304 13.0725L21.9903 11.7198L22.2609 12.0966C22.3285 12.1932 22.4348 12.2512 22.5604 12.2512C22.6763 12.2512 22.7923 12.2029 22.8599 12.1063L23.401 11.4203L23.9807 12.1159C24.0483 12.2029 24.1546 12.2512 24.2705 12.2512C24.2802 12.2512 24.2802 12.2512 24.2899 12.2512C24.4058 12.2415 24.5121 12.1836 24.5797 12.087L24.8116 11.7488L29.0725 18.4638L23.5942 16.1546C23.4686 16.0966 23.3237 16.0966 23.1981 16.1546ZM16.5121 20.0676V18.9758V18.4734V15.7198L17.8841 16.2995L18.8406 16.7053L20.3768 17.3527L21.6908 17.9034L22.6763 18.3188L16.5121 21.9614V20.0676ZM14.8502 8.67633L16 6.86957L17.1594 8.70531L16.9469 9.01449L16.2802 8.22222C16.2029 8.13527 16.0966 8.08696 15.9903 8.08696C15.8744 8.08696 15.7681 8.14493 15.7005 8.23188L15.0821 9.01449L14.8502 8.67633ZM14.4155 9.36232L14.7633 9.84541C14.8309 9.94203 14.9372 10 15.0628 10C15.1787 10 15.2947 9.95169 15.3623 9.85507L16 9.04348L16.686 9.85507C16.7536 9.94203 16.8599 9.99034 16.9758 9.99034C16.9855 9.99034 16.9855 9.99034 16.9952 9.99034C17.1111 9.98068 17.2174 9.9227 17.285 9.82609L17.5942 9.38164L19.9227 13.0531L20.5217 14.0097L22.1449 16.5797L22.4928 17.1208L21.6812 16.7729L19.3816 15.8068L18.4251 15.401L16.1836 14.4541C16.1739 14.4541 16.1643 14.4444 16.1546 14.4444C16.1449 14.4444 16.1256 14.4348 16.1159 14.4348C16.087 14.4251 16.0676 14.4251 16.0386 14.4251C16.029 14.4251 16.0193 14.4251 16.0097 14.4251C16 14.4251 15.9903 14.4251 15.9807 14.4251C15.971 14.4251 15.9614 14.4251 15.9517 14.4251C15.942 14.4251 15.9324 14.4251 15.9227 14.4251C15.8937 14.4251 15.8744 14.4348 15.8454 14.4348C15.8357 14.4348 15.8164 14.4444 15.8068 14.4444C15.7971 14.4444 15.7874 14.4541 15.7778 14.4541L13.5362 15.401L12.5797 15.8068L10.2802 16.7729L9.4686 17.1208L9.81643 16.5797L11.4396 14.0097L12.0386 13.0531L14.4155 9.36232ZM7.63285 11.0338L8.59903 9.50725L9.58454 11.0531L9.44928 11.2464L8.88889 10.5797C8.82126 10.4928 8.71498 10.4444 8.59903 10.4444C8.59903 10.4444 8.59903 10.4444 8.58937 10.4444C8.47343 10.4444 8.36715 10.5024 8.29952 10.5894L7.77778 11.2464L7.63285 11.0338ZM8.80193 16.1546C8.67633 16.0966 8.5314 16.0966 8.4058 16.1546L2.92754 18.4638L7.19807 11.7198L7.4686 12.0966C7.53623 12.1932 7.64251 12.2512 7.76812 12.2512C7.88406 12.2512 8 12.2029 8.06763 12.1063L8.6087 11.4203L9.18841 12.1159C9.25604 12.2029 9.36232 12.2512 9.47826 12.2512C9.48792 12.2512 9.48792 12.2512 9.49758 12.2512C9.61353 12.2415 9.71981 12.1836 9.78744 12.087L10.0193 11.7488L10.8599 13.0725L8.87923 16.1932L8.80193 16.1546ZM9.32367 18.3092L10.3092 17.8937L11.6232 17.343L13.1594 16.6957L14.1159 16.2899L15.4879 15.7101V18.4638V18.9662V20.058V21.942L9.32367 18.3092ZM2.2029 10.1643C2.95652 8.37681 4.03865 6.78261 5.41063 5.40097C6.78261 4.02899 8.38647 2.94686 10.1739 2.19324C12.0193 1.41063 13.9807 1.01449 16 1.01449C18.0193 1.01449 19.9807 1.41063 21.8261 2.19324C23.6135 2.94686 25.2077 4.02899 26.5894 5.40097C27.9614 6.77295 29.0435 8.37681 29.7971 10.1643C30.5797 12.0097 30.9758 13.971 30.9758 15.9903C30.9758 17.0338 30.8696 18.058 30.6667 19.0531L23.8261 8.28019C23.7295 8.13527 23.5749 8.03865 23.3913 8.03865C23.2174 8.03865 23.0531 8.1256 22.9565 8.28019L20.5217 12.1159L16.4155 5.64251C16.3188 5.49758 16.1546 5.40097 15.9807 5.40097C15.8068 5.40097 15.6425 5.48792 15.5459 5.64251L11.4396 12.1159L9.00483 8.28019C8.90821 8.13527 8.75362 8.03865 8.57005 8.03865C8.39614 8.03865 8.23188 8.1256 8.13527 8.28019L1.30435 19.0628C1.09179 18.058 0.995169 17.0338 0.995169 16C1.02415 13.971 1.42029 12.0097 2.2029 10.1643ZM16 0C7.16908 0 0 7.15942 0 16C0 24.8309 7.15942 32 16 32C24.8309 32 32 24.8406 32 16C31.9903 7.15942 24.8309 0 16 0Z" fill="white"/>
</svg>
