<svg width="433" height="90" viewBox="0 0 433 90" fill="none" xmlns="http://www.w3.org/2000/svg">
<path d="M76.5312 27.2086C75.5638 26.6533 74.4669 26.3609 73.3503 26.3609C72.2337 26.3609 71.1368 26.6533 70.1693 27.2086L55.5742 35.87L45.6571 41.5188L31.0619 50.1804C30.0945 50.7357 28.9976 51.028 27.881 51.028C26.7645 51.028 25.6675 50.7357 24.7001 50.1804L13.099 43.4019C12.147 42.8356 11.3554 42.0371 10.7989 41.0818C10.2423 40.1264 9.93919 39.0456 9.91797 37.9412V24.5725C9.89947 23.4602 10.1859 22.3639 10.7464 21.4017C11.3069 20.4396 12.1203 19.6479 13.099 19.1121L24.513 12.5218C25.4805 11.9664 26.5774 11.6741 27.694 11.6741C28.8106 11.6741 29.9076 11.9664 30.875 12.5218L42.2891 19.1121C43.241 19.6784 44.0325 20.4768 44.589 21.4321C45.1455 22.3875 45.4487 23.4682 45.4699 24.5725V33.234L55.387 27.3969V18.7353C55.4055 17.623 55.1191 16.5268 54.5586 15.5646C53.9982 14.6024 53.1848 13.8107 52.2062 13.2749L31.0619 0.847705C30.0945 0.292334 28.9976 0 27.881 0C26.7645 0 25.6675 0.292334 24.7001 0.847705L3.18177 13.275C2.20316 13.8109 1.38981 14.6025 0.829306 15.5647C0.268799 16.5268 -0.0176364 17.6231 0.000842269 18.7353V43.7783C-0.0176534 44.8906 0.268779 45.9869 0.829298 46.9491C1.38982 47.9112 2.20319 48.7029 3.18182 49.2387L24.7002 61.666C25.6675 62.2215 26.7645 62.5139 27.8811 62.5139C28.9977 62.5139 30.0946 62.2215 31.062 61.666L45.6571 53.1928L55.5742 47.3559L70.1694 38.8827C71.1368 38.3273 72.2338 38.035 73.3503 38.035C74.4669 38.035 75.5639 38.3273 76.5313 38.8827L87.9454 45.473C88.8973 46.0393 89.6888 46.8377 90.2453 47.793C90.8018 48.7483 91.1049 49.8291 91.1262 50.9334V64.3022C91.1447 65.4145 90.8583 66.5108 90.2978 67.4729C89.7373 68.4351 88.924 69.2267 87.9454 69.7626L76.5313 76.5414C75.5639 77.0967 74.4669 77.389 73.3503 77.389C72.2338 77.389 71.1368 77.0967 70.1694 76.5414L58.7553 69.951C57.8033 69.3848 57.0117 68.5863 56.4552 67.6309C55.8986 66.6756 55.5954 65.5948 55.5742 64.4904V55.829L45.6571 61.666V70.3276C45.6386 71.4399 45.925 72.5361 46.4855 73.4983C47.046 74.4605 47.8594 75.2521 48.838 75.7879L70.3563 88.2155C71.3237 88.7709 72.4207 89.0632 73.5373 89.0632C74.6538 89.0632 75.7508 88.7709 76.7182 88.2155L98.2366 75.7879C99.1886 75.2217 99.9801 74.4233 100.537 73.468C101.093 72.5127 101.396 71.4319 101.418 70.3276V45.2846C101.436 44.1723 101.15 43.076 100.589 42.1139C100.029 41.1517 99.2152 40.3601 98.2366 39.8242L76.5312 27.2086Z" fill="#7B3FE4"/>
<path d="M140.932 81.0433V60.2528C142.362 61.7696 144.112 62.9528 146.055 63.7178C147.998 64.4828 150.087 64.8107 152.172 64.6781C164.427 64.6781 172.709 56.078 172.709 42.9691C172.709 29.8602 165.103 21.2601 153.186 21.2601C150.874 21.1297 148.563 21.5371 146.436 22.45C144.309 23.363 142.425 24.7565 140.932 26.5204V21.9281H129.184V81.0433H140.932ZM150.735 54.6585C144.397 54.6585 140.256 49.9828 140.256 42.9691C140.256 35.8719 144.397 31.1961 150.735 31.1961C156.905 31.1961 161.13 35.8719 161.13 42.9691C161.131 49.9828 156.905 54.6585 150.735 54.6585Z" fill="white"/>
<path d="M199.384 64.6783C203.666 64.5455 207.813 63.1595 211.308 60.6933C214.803 58.227 217.492 54.7897 219.038 50.8106C220.585 46.8314 220.92 42.4866 220.003 38.3187C219.086 34.1507 216.957 30.3441 213.881 27.3742C210.806 24.4044 206.92 22.4027 202.71 21.6191C198.5 20.8356 194.151 21.3048 190.206 22.9683C186.262 24.6318 182.897 27.4159 180.531 30.9729C178.165 34.5299 176.904 38.7023 176.904 42.9693C176.847 45.8942 177.395 48.7994 178.514 51.5042C179.633 54.2091 181.298 56.6557 183.407 58.6918C185.515 60.728 188.022 62.3103 190.771 63.3401C193.519 64.37 196.451 64.8255 199.384 64.6783ZM199.384 54.6587C193.046 54.6587 188.736 49.8995 188.736 42.9693C188.736 35.9556 193.046 31.1963 199.384 31.1963C205.723 31.1963 210.033 35.9556 210.033 42.9693C210.033 49.8995 205.723 54.6587 199.384 54.6587Z" fill="white"/>
<path d="M240.714 64.01V3.64233H228.967V64.01H240.714Z" fill="white"/>
<path d="M276.027 21.928L267.153 49.0642L258.195 21.928H246.194L261.66 63.676L255.406 81.0432H266.646L272.647 63.843L288.112 21.928H276.027Z" fill="white"/>
<path d="M321.105 26.103C319.627 24.4814 317.808 23.2061 315.776 22.3688C313.745 21.5314 311.553 21.1529 309.357 21.2603C296.932 21.2603 289.411 29.8604 289.411 42.9693C289.411 56.0781 296.933 64.6782 309.527 64.6782C311.721 64.8105 313.916 64.4345 315.939 63.5798C317.962 62.725 319.759 61.4148 321.189 59.752V65.2627C321.255 66.1117 321.144 66.965 320.865 67.7696C320.585 68.5742 320.142 69.3129 319.563 69.9395C318.984 70.5661 318.282 71.0673 317.501 71.4119C316.719 71.7565 315.875 71.9371 315.02 71.9424H295.413V81.0435H316.878C326.514 81.0435 332.937 75.2822 332.937 66.5152V21.9282H321.105V26.103ZM311.385 54.6587C305.132 54.6587 300.989 50.0664 300.989 42.9693C300.989 35.8721 305.132 31.1963 311.385 31.1963C317.724 31.1963 321.865 35.8721 321.865 42.9693C321.865 50.0664 317.724 54.6587 311.385 54.6587V54.6587Z" fill="white"/>
<path d="M362.552 64.6783C366.833 64.5458 370.981 63.16 374.476 60.6939C377.972 58.2278 380.661 54.7906 382.207 50.8115C383.754 46.8324 384.089 42.4875 383.172 38.3195C382.255 34.1514 380.126 30.3447 377.051 27.3747C373.975 24.4047 370.09 22.4029 365.88 21.6192C361.669 20.8355 357.32 21.3047 353.376 22.9682C349.431 24.6316 346.066 27.4157 343.7 30.9727C341.334 34.5298 340.073 38.7023 340.073 42.9693C340.016 45.894 340.564 48.7991 341.683 51.5037C342.802 54.2084 344.467 56.6549 346.576 58.691C348.684 60.7271 351.191 62.3094 353.939 63.3394C356.687 64.3694 359.619 64.8252 362.552 64.6783ZM362.552 54.6587C356.213 54.6587 351.905 49.8995 351.905 42.9693C351.905 35.9556 356.213 31.1963 362.552 31.1963C368.891 31.1963 373.202 35.9556 373.202 42.9693C373.202 49.8995 368.891 54.6587 362.552 54.6587Z" fill="white"/>
<path d="M403.289 64.0102V40.9653C403.203 39.7655 403.367 38.5609 403.771 37.4272C404.174 36.2934 404.808 35.2549 405.634 34.3769C406.459 33.4988 407.457 32.8002 408.566 32.3247C409.676 31.8492 410.871 31.6071 412.079 31.6137C413.211 31.602 414.332 31.8256 415.373 32.2701C416.413 32.7146 417.349 33.3702 418.12 34.1952C418.892 35.0201 419.482 35.9963 419.854 37.0613C420.226 38.1264 420.37 39.2569 420.279 40.3808V64.0102H432.111V37.7924C432.111 28.1069 425.855 21.2602 416.222 21.2602C413.68 21.1016 411.141 21.6215 408.868 22.7664C406.594 23.9112 404.669 25.6394 403.289 27.7729V21.9282H391.46V64.0102H403.289Z" fill="white"/>
</svg>
